<?xml version="1.0" encoding="iso-8859-1"?>
<!-- Generator: Adobe Illustrator 19.0.0, SVG Export Plug-In . SVG Version: 6.00 Build 0)  -->
<svg xmlns="http://www.w3.org/2000/svg" xmlns:xlink="http://www.w3.org/1999/xlink" version="1.1" id="Layer_1" x="0px" y="0px" viewBox="0 0 512 512" style="enable-background:new 0 0 512 512;" xml:space="preserve">
<circle style="fill:#FFA91F;" cx="255.996" cy="255.997" r="255.996"/>
<path style="fill:#E67500;" d="M512,256c0-26-3.889-51.089-11.095-74.731l-53.091-53.093l-0.013,0.008  c-4.559-4.696-10.919-7.634-17.941-7.634h-63.44l-28.765-48.722H174.342l-28.765,48.722H82.138  c-13.777,0-25.048,11.271-25.048,25.048V375.45c0,6.918,2.845,13.202,7.42,17.746l-0.003,0.002L167.72,496.367  c25.466,9.356,52.831,14.78,81.36,15.536c0.15,0.004,0.3,0.01,0.45,0.014c2.125,0.053,4.257,0.08,6.396,0.082  c0.025,0,0.049,0.001,0.074,0.001c2.212,0,4.417-0.032,6.616-0.084C400.944,508.407,512,395.173,512,256z"/>
<polygon style="fill:#FFFFFF;" points="337.658,71.83 174.342,71.83 142.787,125.277 369.213,125.277 "/>
<polygon style="fill:#E1E1E3;" points="369.213,125.277 337.658,71.83 255.996,71.83 255.996,125.277 "/>
<path style="fill:#005ED3;" d="M429.862,120.552H82.138c-13.777,0-25.048,11.271-25.048,25.048v229.851  c0,13.776,11.271,25.048,25.048,25.048h347.725c13.777,0,25.048-11.272,25.048-25.048V145.6  C454.91,131.824,443.639,120.552,429.862,120.552z"/>
<path style="fill:#003D8D;" d="M429.862,120.552H255.996v279.947h173.866c13.777,0,25.048-11.272,25.048-25.048V145.6  C454.91,131.824,443.639,120.552,429.862,120.552z"/>
<rect x="57.09" y="207.493" style="fill:#49BBEE;" width="397.818" height="106.056"/>
<rect x="255.996" y="207.493" style="fill:#0082D1;" width="198.914" height="106.056"/>
<circle style="fill:#FFFFFF;" cx="255.996" cy="260.521" r="103.12"/>
<path style="fill:#E1E1E3;" d="M256.001,157.41c-0.001,0-0.002,0-0.004,0v206.231c0.001,0,0.002,0,0.004,0  c56.949,0,103.115-46.166,103.115-103.115S312.949,157.41,256.001,157.41z"/>
<circle style="fill:#29292B;" cx="255.996" cy="260.521" r="82.859"/>
<path style="fill:#171719;" d="M256.001,177.669c-0.001,0-0.002,0-0.004,0v165.712c0.001,0,0.002,0,0.004,0  c45.76,0,82.856-37.095,82.856-82.856S301.76,177.669,256.001,177.669z"/>
<path style="fill:#57555C;" d="M256.001,203.025c-31.757,0-57.501,25.744-57.501,57.5c0,31.757,25.744,57.501,57.501,57.501  s57.5-25.744,57.5-57.501C313.5,228.769,287.757,203.025,256.001,203.025z M256.001,300.647c-22.158,0-40.121-17.963-40.121-40.121  c0-22.158,17.963-40.121,40.121-40.121s40.121,17.963,40.121,40.121C296.121,282.684,278.158,300.647,256.001,300.647z"/>
<path style="fill:#3C3B41;" d="M256.001,203.025c-0.001,0-0.002,0-0.004,0v17.38c0.001,0,0.002,0,0.004,0  c22.158,0,40.121,17.963,40.121,40.121s-17.963,40.121-40.121,40.121c-0.001,0-0.002,0-0.004,0v17.38c0.001,0,0.002,0,0.004,0  c31.757,0,57.5-25.744,57.5-57.501S287.757,203.025,256.001,203.025z"/>
<circle style="fill:#8B8992;" cx="297.081" cy="237.795" r="24.013"/>
<rect x="360.61" y="143.296" style="fill:#E1E1E3;" width="64.427" height="42.234"/>
<g>
</g>
<g>
</g>
<g>
</g>
<g>
</g>
<g>
</g>
<g>
</g>
<g>
</g>
<g>
</g>
<g>
</g>
<g>
</g>
<g>
</g>
<g>
</g>
<g>
</g>
<g>
</g>
<g>
</g>
</svg>
